<svg xmlns="http://www.w3.org/2000/svg" viewBox="0 0 64 64"><defs><style>.cls-1{fill:#fadf00;}.cls-2{fill:#ffc332;opacity:0.91;}.cls-3{fill:#009ede;}.cls-4{fill:#0083ca;}.cls-5{fill:#fff;}</style></defs><g id="_10.sun" data-name="10.sun"><path class="cls-1" d="M44.25,27.27a10.74,10.74,0,0,1,9.35,3.66c5.82-13.38-12.39-23.72-20.88-12A14.58,14.58,0,0,1,44.25,27.27Z" id="id_101"></path><path class="cls-2" d="M44.25,27.27A10.74,10.74,0,0,1,53.63,31C53.18,23.33,45,17.84,37.74,20.46A14.59,14.59,0,0,1,44.25,27.27Z" id="id_102"></path><path class="cls-3" d="M54.66,43.78c4.78-7.29-1.57-17.73-10.41-16.51-5-11.17-21.57-11.17-26.52,0C9,26,2.49,36.49,7.31,43.78Z" id="id_103" style="fill: rgb(141, 208, 245);"></path><path class="cls-4" d="M54.66,43.78a10.91,10.91,0,0,0-.18-11.68,10.6,10.6,0,0,0-2.25,0,12.83,12.83,0,0,0-.64-1.22l-5.32-3.08H43.7l-1-1L42,25.33l-2.88-1.66a14.53,14.53,0,0,0-13.37,8.44,10.89,10.89,0,0,0-12,11.67Z" id="id_104" style="fill: rgb(123, 185, 224);"></path><path class="cls-5" d="M26,22.92a1,1,0,0,0,.9,1.79,9.15,9.15,0,0,1,6.56-.61,1,1,0,0,0,1.24-.69C34.9,20.65,27.44,21.9,26,22.92Z" id="id_105"></path><path class="cls-5" d="M23,25.11c-1.42.92-.3,3,1.07,1.79C25.41,26,24.32,24,23,25.11Z" id="id_106"></path><path d="M7.8,43.78a1,1,0,0,0,.88-1.48A8.8,8.8,0,0,1,7.59,38c0-9.6,13.42-12.28,17.1-3.43a1,1,0,0,0,1.84-.76,11,11,0,0,0-6.85-6.22c4.33-9,18.18-9,22.52,0a10.83,10.83,0,0,0-6.86,6.22,1,1,0,0,0,.53,1.3,1,1,0,0,0,1.31-.53c5.11-11.23,21.59-3.31,16,7.68a1,1,0,0,0,.88,1.48,1,1,0,0,0,.87-.51A10.92,10.92,0,0,0,53.66,31c6.24-13.56-12.47-24.28-21-12.08a14.63,14.63,0,0,0-15,8.34A10.91,10.91,0,0,0,5.59,38C5.7,39.7,6,43.26,7.8,43.78ZM42.67,15.54a10.24,10.24,0,0,1,9.47,14,10.82,10.82,0,0,0-7.92-2.28,14.59,14.59,0,0,0-9.44-7.93A10.25,10.25,0,0,1,42.67,15.54Z" id="id_107"></path><path class="cls-5" d="M11.84,34.2a5.91,5.91,0,0,1,5.6-2c.89.09,2.11,1.09,2.67-.09.52-1.37-1.37-1.66-2.32-1.88a7.85,7.85,0,0,0-7.48,2.67A1,1,0,0,0,11.84,34.2Z" id="id_108"></path><path class="cls-5" d="M9.8,35.59c-1.57-.45-2,3.54-.37,3.45,1.25,0,.92-1.44,1.14-2.26A1,1,0,0,0,9.8,35.59Z" id="id_109"></path><path class="cls-5" d="M42.9,18.59c1.42-.05,2.52.91,3.75,1.33a1,1,0,0,0,.59-1.81c-1.13-.77-4.78-2.69-5.28-.58A1,1,0,0,0,42.9,18.59Z" id="id_110"></path><path class="cls-5" d="M39.74,17.24a7.56,7.56,0,0,0-1.12.61,1,1,0,0,0,.55,1.84c.82-.23,2.36-.83,1.89-2A1,1,0,0,0,39.74,17.24Z" id="id_111"></path><path d="M42.67,12.58a1,1,0,0,0,1-1V7.63a1,1,0,0,0-2,0v4A1,1,0,0,0,42.67,12.58Z" id="id_112"></path><path d="M53,16.44a1,1,0,0,0,.7-.3l2.8-2.79a1,1,0,0,0,0-1.41,1,1,0,0,0-1.42,0l-2.79,2.79A1,1,0,0,0,53,16.44Z" id="id_113"></path><path d="M60.77,24.73h-4a1,1,0,0,0,0,2h4A1,1,0,0,0,60.77,24.73Z" id="id_114"></path><path d="M31.67,16.14c.9.93,2.35-.51,1.42-1.41l-2.8-2.79c-.9-.93-2.34.51-1.41,1.41Z" id="id_115"></path><path d="M60.06,46C49,47.86,37.34,47.23,23.37,44,15.56,42.89,8.94,44.33,3,46A1,1,0,0,0,3.5,48c6.68-1.91,12.57-3,19.5-2C36.59,49,47.67,50,60.39,48A1,1,0,0,0,60.06,46Z" id="id_116"></path><path d="M50.62,51.31c-12,.91-28.38-3.81-39-2.49a1,1,0,0,0,.12,2c7.24-.44,15.11.18,24.82,2,2.27.16,15.57,1.91,15.12-.52A1,1,0,0,0,50.62,51.31Z" id="id_117"></path><path d="M43.72,55.37c-4.16.46-26.16-4.69-26-1.67a1,1,0,0,0,1,1,118,118,0,0,1,17.91,2c2.55.32,4.87.52,7.12.6a1,1,0,0,0,0-2Z" id="id_118"></path></g></svg>